<svg width="12" height="12" viewBox="0 0 12 12" fill="none" xmlns="http://www.w3.org/2000/svg">
<path fill-rule="evenodd" clip-rule="evenodd" d="M6.38369 11.5999C7.8689 11.5999 9.29329 11.0099 10.3435 9.9597C11.3937 8.9095 11.9837 7.48511 11.9837 5.9999C11.9837 4.51469 11.3937 3.09031 10.3435 2.0401C9.29329 0.989901 7.8689 0.399902 6.38369 0.399902C4.89848 0.399902 3.4741 0.989901 2.42389 2.0401C1.37369 3.09031 0.783691 4.51469 0.783691 5.9999C0.783691 7.48511 1.37369 8.9095 2.42389 9.9597C3.4741 11.0099 4.89848 11.5999 6.38369 11.5999ZM8.97859 5.0948C9.1061 4.96278 9.17666 4.78596 9.17506 4.60242C9.17347 4.41888 9.09985 4.24331 8.97006 4.11353C8.84028 3.98374 8.66471 3.91013 8.48117 3.90853C8.29763 3.90694 8.12081 3.97749 7.98879 4.105L5.68369 6.4101L4.77859 5.505C4.64657 5.37749 4.46975 5.30694 4.28621 5.30853C4.10267 5.31013 3.9271 5.38374 3.79732 5.51353C3.66753 5.64331 3.59391 5.81888 3.59232 6.00242C3.59072 6.18596 3.66128 6.36278 3.78879 6.4948L5.18879 7.8948C5.32006 8.02603 5.49808 8.09975 5.68369 8.09975C5.86931 8.09975 6.04732 8.02603 6.17859 7.8948L8.97859 5.0948Z" fill="#67B77D"/>
</svg>
