<svg width="82" height="60" viewBox="0 0 82 60" fill="none" xmlns="http://www.w3.org/2000/svg">
<g clip-path="url(#clip0_193_8665)">
<path d="M0.369141 3.63067C0.496345 3.60747 0.504814 3.5062 0.542976 3.40705C1.41645 1.08646 2.9747 0 5.47004 0H50.2037C53.2736 0 55.2664 1.96828 55.2686 5.00193C55.2686 8.34148 55.2834 11.6831 55.2537 15.0227C55.2537 15.6155 55.3703 15.8053 56.0127 15.8011C60.1363 15.7674 64.2598 15.7906 68.3834 15.7821C70.3953 15.7821 71.9091 16.6471 72.808 18.4171C75.6362 23.9781 78.4177 29.5622 81.2226 35.1359C81.491 35.6772 81.6241 36.275 81.6105 36.8784C81.5914 39.8319 81.6105 42.7706 81.6105 45.7178C81.6105 47.6882 80.6756 49.108 78.952 50.0383C78.7166 50.1649 78.4262 50.1818 78.4283 50.5995C78.441 52.9201 77.6036 54.9369 76.0432 56.8271C77.3831 56.8271 78.6085 56.8271 79.8339 56.8271C80.9279 56.8271 81.6063 57.4389 81.6105 58.3988C81.6148 59.3587 80.9321 59.9831 79.8466 59.9831C53.9407 59.9831 28.0369 59.9887 2.13516 60C1.31469 60 0.863114 59.538 0.390336 59.038V57.9326C0.814352 57.0697 1.49491 56.7976 2.44471 56.8102C5.47854 56.8545 8.51235 56.8292 11.5441 56.8102C11.7561 56.8102 12.0084 56.922 12.2098 56.7005C10.8042 55.0128 9.98156 53.0952 9.9222 50.8948C9.9222 50.5003 9.72293 50.4961 9.43247 50.4982C8.53568 50.4982 7.63252 50.4349 6.7442 50.5151C3.74853 50.7872 1.49065 49.8442 0.38397 46.8718L0.369141 3.63067ZM27.8178 3.15812C20.3904 3.15812 12.9638 3.15812 5.53789 3.15812C4.18104 3.15812 3.54501 3.74881 3.54501 5.03569C3.54501 14.74 3.54008 24.4443 3.53018 34.1486C3.53018 34.6633 3.69342 34.7477 4.15347 34.7372C5.50184 34.7076 6.85023 34.7203 8.1986 34.7372C9.25864 34.7372 9.8777 35.3511 9.89466 36.3911C9.90738 38.4431 9.90738 40.4944 9.89466 42.5449C9.89466 43.5871 9.25863 44.1946 8.21131 44.2052C7.02194 44.2052 5.83259 44.2052 4.64323 44.2052C3.54714 44.2052 3.54714 44.2052 3.5535 45.3317C3.5535 46.7726 4.13227 47.357 5.55484 47.3612C6.97742 47.3654 8.4106 47.3422 9.83742 47.3739C10.2763 47.3739 10.4734 47.2367 10.6494 46.8422C12.373 43.1419 15.2775 41.0829 19.399 41.0745C23.5204 41.0661 26.4355 43.1103 28.1591 46.8169C28.2178 46.9969 28.3379 47.1508 28.4985 47.2521C28.6592 47.3534 28.8503 47.3957 29.039 47.3717C36.4917 47.3563 43.9445 47.3563 51.3973 47.3717C52.0333 47.3717 52.1075 47.1756 52.1054 46.6249C52.0913 32.842 52.0913 19.0591 52.1054 5.27618C52.1054 3.68341 51.5648 3.14968 49.9599 3.14968L27.8178 3.15812ZM71.0462 22.1089C70.6518 21.3094 70.3148 20.6111 69.965 19.917C69.8269 19.6159 69.6011 19.3629 69.3168 19.191C69.0325 19.0191 68.7029 18.9362 68.3706 18.9529C64.1665 18.9529 59.9645 18.9529 55.7625 18.9424C55.3385 18.9424 55.2431 19.0689 55.2431 19.4719C55.2544 28.5981 55.2544 37.7237 55.2431 46.8486C55.2431 47.2557 55.3428 47.3865 55.7647 47.376C56.8735 47.3464 57.9865 47.3296 59.0932 47.376C59.6762 47.4034 59.9412 47.2262 60.1956 46.6819C61.8005 43.2938 64.5015 41.315 68.2625 41.0829C72.2907 40.8319 75.3139 42.6293 77.3343 46.1081C77.4912 46.3781 77.4955 46.9519 77.858 46.857C78.2629 46.7557 78.3562 46.2241 78.4028 45.8022C78.4124 45.6181 78.4124 45.4336 78.4028 45.2495C78.4028 43.066 78.3774 40.8825 78.4177 38.7096C78.4304 38.0767 78.3075 37.8805 77.6227 37.8847C71.8349 37.9164 66.047 37.9037 60.2592 37.9016C58.9872 37.9016 58.4169 37.3383 58.4169 36.0831C58.4169 32.034 58.4169 27.9842 58.4169 23.9338C58.4169 22.6806 58.9893 22.1195 60.2613 22.1195C63.5644 22.1195 66.8675 22.1195 70.1706 22.1195L71.0462 22.1089ZM61.7708 56.8123C60.3504 55.1457 59.549 53.342 59.4176 51.2999C59.3752 50.667 59.2416 50.4961 58.5865 50.4982C48.991 50.5235 39.3962 50.5235 29.8022 50.4982C29.0962 50.4982 28.8376 50.6543 28.8884 51.3779C28.9181 51.7999 28.7633 52.2555 28.6764 52.6922C28.3478 54.2217 27.5867 55.5423 26.5563 56.8123H61.7708ZM77.3831 34.7287C77.2644 34.4566 77.2092 34.3068 77.1393 34.176C75.7082 31.3217 74.2666 28.48 72.8546 25.6088C72.6638 25.2227 72.3946 25.2565 72.0829 25.2565C68.8053 25.2565 65.5276 25.2755 62.25 25.2417C61.65 25.2417 61.5864 25.4527 61.5906 25.959C61.6161 28.6425 61.6203 31.3238 61.5906 34.0072C61.5906 34.5768 61.6966 34.754 62.3093 34.7456C65.4555 34.7097 68.6017 34.7287 71.7458 34.7287H77.3831ZM19.4265 44.201C18.1729 44.1964 16.9459 44.5616 15.9007 45.2505C14.8555 45.9393 14.0389 46.9209 13.5539 48.0713C13.069 49.2216 12.9374 50.4892 13.176 51.7139C13.4145 52.9386 14.0124 54.0655 14.8941 54.9523C15.7758 55.8391 16.9019 56.4461 18.13 56.6965C19.3582 56.9469 20.6334 56.8296 21.7946 56.3593C22.9557 55.889 23.9508 55.0869 24.6542 54.0543C25.3576 53.0216 25.7377 51.8047 25.7465 50.5573C25.7804 47.1249 22.8865 44.2157 19.4265 44.201ZM68.9219 44.201C67.6682 44.196 66.4412 44.5608 65.3957 45.2493C64.3503 45.9378 63.5333 46.9191 63.048 48.0693C62.5626 49.2195 62.4307 50.487 62.6688 51.7118C62.9069 52.9366 63.5044 54.0637 64.3858 54.9508C65.2673 55.8379 66.3931 56.4452 67.6212 56.696C68.8493 56.9469 70.1245 56.83 71.2858 56.3601C72.4472 55.8902 73.4425 55.0885 74.1463 54.056C74.85 53.0236 75.2305 51.8069 75.2397 50.5594C75.2863 47.1312 72.3839 44.2178 68.9261 44.201H68.9219ZM5.17537 37.8869C3.54291 37.8869 3.54289 37.8868 3.54289 39.4986C3.54289 41.0429 3.54289 41.0429 5.08207 41.0429C6.71453 41.0429 6.71455 41.0429 6.71455 39.4311C6.71455 37.8868 6.71454 37.8869 5.17537 37.8869Z" fill="#544D7A"/>
<path d="M34.1167 12.6304H24.4427C23.2682 12.6304 22.5877 12.0587 22.5792 11.0735C22.5707 10.0883 23.247 9.47647 24.4046 9.47437C30.9061 9.47437 37.4077 9.47437 43.9093 9.47437C45.0626 9.47437 45.7474 10.0819 45.7368 11.0735C45.7262 12.065 45.0435 12.6304 43.869 12.6304H34.1167Z" fill="#544D7A"/>
<path d="M37.3116 18.9445C35.1166 18.9445 32.9258 18.9445 30.7393 18.9445C29.5924 18.9445 28.9139 18.3285 28.933 17.3285C28.95 16.3728 29.6242 15.7906 30.7372 15.7906C35.1498 15.7906 39.5631 15.7906 43.9771 15.7906C45.0668 15.7906 45.7452 16.4045 45.7452 17.3665C45.7452 18.3285 45.0689 18.9424 43.9792 18.9445C41.7545 18.9445 39.532 18.9445 37.3116 18.9445Z" fill="#544D7A"/>
<path d="M17.8319 12.6283C17.5191 12.6315 17.2123 12.5426 16.9501 12.3728C16.688 12.203 16.4821 11.9598 16.3585 11.6739C16.2349 11.388 16.1991 11.072 16.2555 10.7659C16.3119 10.4597 16.458 10.177 16.6755 9.95323C16.893 9.7295 17.1721 9.57477 17.4777 9.50852C17.7834 9.44226 18.1019 9.46743 18.3932 9.58086C18.6845 9.69429 18.9356 9.89091 19.1148 10.146C19.2941 10.4011 19.3936 10.7032 19.4007 11.0144C19.4099 11.2243 19.3761 11.4339 19.3012 11.6304C19.2263 11.8269 19.1119 12.0061 18.9651 12.1571C18.8183 12.3082 18.6421 12.4278 18.4472 12.5088C18.2524 12.5898 18.043 12.6305 17.8319 12.6283Z" fill="#544D7A"/>
<path d="M16.2335 50.475C16.24 49.8469 16.4343 49.2349 16.7915 48.717C17.1487 48.1992 17.6528 47.7988 18.2395 47.5669C18.8261 47.335 19.4689 47.2821 20.0859 47.4149C20.7028 47.5478 21.2661 47.8603 21.704 48.3128C22.1419 48.7652 22.4346 49.3371 22.5447 49.9556C22.6549 50.5741 22.5776 51.2112 22.3226 51.7859C22.0677 52.3605 21.6466 52.8467 21.1131 53.1824C20.5796 53.5181 19.9577 53.6882 19.3267 53.6711C18.9118 53.6662 18.502 53.5793 18.1212 53.4155C17.7404 53.2517 17.3961 53.0142 17.1083 52.7168C16.8205 52.4194 16.595 52.0681 16.4448 51.6833C16.2946 51.2984 16.2228 50.8877 16.2335 50.475Z" fill="#544D7A"/>
<path d="M68.9264 47.3591C69.558 47.3622 70.1744 47.5524 70.697 47.9055C71.2195 48.2585 71.6246 48.7584 71.8605 49.3415C72.0964 49.9245 72.1526 50.5642 72.0217 51.1791C71.8908 51.794 71.5789 52.3562 71.1257 52.794C70.6725 53.2318 70.0986 53.5254 69.477 53.6373C68.8555 53.7493 68.2145 53.6745 67.6359 53.4226C67.0572 53.1706 66.567 52.7529 66.2278 52.2227C65.8887 51.6925 65.7159 51.0738 65.7314 50.4455C65.7364 50.0337 65.8231 49.627 65.9866 49.2487C66.1501 48.8704 66.3871 48.528 66.684 48.2412C66.9809 47.9544 67.3318 47.7288 67.7167 47.5774C68.1015 47.426 68.5126 47.3518 68.9264 47.3591Z" fill="#544D7A"/>
</g>
<defs>
<clipPath id="clip0_193_8665">
<rect width="81.2308" height="60" fill="white" transform="translate(0.369141)"/>
</clipPath>
</defs>
</svg>
