<svg width="75" height="60" viewBox="0 0 75 60" fill="none" xmlns="http://www.w3.org/2000/svg">
<g clip-path="url(#clip0_681_198)">
<path d="M71.4466 49.8981C71.1911 49.4915 71.1053 49.1688 71.3962 48.7166C72.7835 46.6088 73.4771 44.2695 73.7251 41.7879C73.8687 40.3547 73.4753 39.9007 71.9892 39.7913C71.8269 39.7804 71.6629 39.7804 71.5006 39.7804C70.1301 39.7895 68.8025 39.7293 67.3985 39.6418C66.9715 39.6144 66.8111 39.485 66.8764 39.0674C66.9776 38.5303 67.04 37.9868 67.0628 37.441C67.0628 36.9888 66.9677 36.5859 66.5743 36.2941C66.3922 36.122 66.164 36.0037 65.9161 35.9532C65.5431 35.8985 60.5086 35.7854 60.4919 35.8219C60.5127 35.6849 60.5439 35.5496 60.5851 35.4171C61.5548 32.7985 62.2763 30.0983 62.7406 27.3506C62.8767 26.5957 62.5747 26.0287 61.95 25.9174C61.275 25.7959 60.8443 26.1302 60.6578 26.9203C60.6261 27.0534 60.6 27.1865 60.5758 27.3196C60.1115 30.023 59.3809 32.6762 58.3942 35.2421C58.273 35.5557 58.1629 35.6979 57.7602 35.6724C52.7014 35.3515 47.6371 35.2165 42.5691 35.1928C34.6164 35.1564 26.6656 35.1418 18.7261 35.6487C17.8441 35.7052 17.5513 35.4335 17.2791 34.6969C15.5338 29.9744 14.8439 25.0751 14.6537 20.0919C14.5311 17.343 14.6234 14.5891 14.9297 11.854C15.0024 11.245 15.1497 10.9733 15.8844 11.0098C17.9973 11.0952 20.1137 10.9731 22.2017 10.6451C27.9541 9.80817 33.1098 7.68031 37.4917 3.8841C37.8646 3.55408 38.066 3.55225 38.437 3.8841C40.0154 5.29094 41.772 6.49384 43.6636 7.46334C48.7652 10.1054 54.2398 11.1264 59.9679 11.0335C60.9002 11.0189 60.8816 11.0243 60.9767 11.9269C61.3283 15.343 61.4044 18.7809 61.2042 22.2088C61.165 22.8998 61.5305 23.3721 62.1215 23.4486C62.8226 23.538 63.2813 23.0092 63.341 22.1249C63.5775 18.198 63.4364 14.2581 62.9196 10.357C62.7648 9.11894 62.4516 8.80714 61.178 8.89831C58.833 9.04204 56.479 8.94119 54.1559 8.59746C48.355 7.77331 43.2198 5.57435 38.9647 1.55933C38.1797 0.81723 37.7322 0.815407 36.9565 1.54292C35.2549 3.15762 33.3298 4.53063 31.2377 5.62175C26.2032 8.22914 20.8107 9.15723 15.1683 8.90378C13.3708 8.81991 13.1844 8.96578 12.9681 10.6815C12.7387 12.5049 12.5952 14.341 12.5075 16.1789C12.2329 21.6296 12.8434 27.0883 14.3162 32.3521C14.6462 33.5172 15.049 34.6641 15.4201 35.831C14.65 35.893 10.2271 36.2103 9.90636 36.2704C9.21086 36.4017 8.94235 36.8174 9.02253 37.4994C9.11203 38.2633 9.22204 39.0237 9.32833 39.8405C7.49167 39.7913 5.65501 39.9262 3.82022 40.0119C2.98486 40.0502 2.25207 40.2581 2.2185 41.1789C2.19914 41.8359 2.25669 42.4929 2.39005 43.1372C2.5132 43.8769 2.68636 44.6078 2.90841 45.3252C3.3019 46.5906 3.88301 47.7929 4.63319 48.8935C4.83644 49.1907 4.75253 49.4405 4.57912 49.7122C4.19612 50.2817 3.85706 50.8784 3.56476 51.4972C2.85412 53.0756 2.40533 54.7547 2.23528 56.4713V57.8352C2.44412 58.5444 3.05572 58.6265 3.66172 58.6921C5.04714 58.8417 6.44375 58.9091 7.83103 58.9419C11.6405 59.0313 15.4536 59.0659 19.2519 58.6776C20.4341 58.5572 20.8704 57.9482 20.6093 56.7959C20.4546 56.1066 20.255 55.4265 20.1506 54.73C20.0947 54.3526 19.7665 53.8457 20.2495 53.6159C20.6075 53.4482 21.7095 53.45 21.8922 53.4518C22.707 53.4646 26.6582 53.2057 27.4432 53.1255C28.0399 53.0653 28.8137 53.0835 29.3619 53.461C31.7276 55.075 34.2494 56.4583 36.8913 57.5908C37.2258 57.7492 37.5927 57.8314 37.9644 57.8314C38.336 57.8314 38.7029 57.7492 39.0375 57.5908C41.6699 56.439 44.1911 55.058 46.5705 53.4646C46.7895 53.2935 47.0505 53.1816 47.3276 53.14C48.4314 53.0398 54.7861 53.5047 55.1348 53.5248C55.8471 53.554 55.9552 53.6561 55.834 54.3471C55.6886 55.1749 55.4816 55.9881 55.2933 56.8141C55.0285 57.9628 55.4797 58.5937 56.6601 58.6812C58.465 58.8143 60.2662 59.0076 62.0824 58.9893C63.4548 58.9748 64.8253 58.9784 66.1976 58.9893C68.2487 59.0021 70.2793 58.8198 72.3192 58.6921C73.4137 58.6247 73.7717 58.2418 73.7307 57.1806C73.6357 54.5992 72.848 52.0877 71.4466 49.8981ZM4.48589 56.4622C4.96324 54.0918 5.58416 51.8054 7.28283 49.9674C7.68186 49.5371 7.70237 49.0102 7.32012 48.6017C5.59721 46.7638 4.97069 44.4864 4.443 41.8991C6.12117 41.8991 7.69678 41.9155 9.27426 41.8882C9.69193 41.8882 9.74787 42.0705 9.81872 42.3932C10.5981 45.9852 11.6237 49.5043 13.093 52.8902C13.4809 53.7837 13.7773 53.9405 14.7507 53.8202C15.5319 53.7217 16.3244 53.6925 17.1057 53.5995C17.4991 53.5521 17.6334 53.6962 17.6837 54.0554C17.7975 54.8394 17.9448 55.618 18.0921 56.4786C13.5871 56.887 9.05609 56.8104 4.48403 56.4604L4.48589 56.4622ZM42.4441 53.3461C41.124 54.0937 39.7647 54.7665 38.3792 55.3882C38.2618 55.4552 38.1295 55.4931 37.9937 55.4988C37.8579 55.5046 37.7227 55.4779 37.5998 55.4211C35.8568 54.649 34.1636 53.7733 32.5299 52.7991H43.3541C42.9532 53.0379 42.7014 53.1966 42.4423 53.3443L42.4441 53.3461ZM50.3352 50.9757C45.1795 50.7296 40.022 50.6475 34.8588 50.7022C29.7441 50.7551 24.6369 50.9739 19.5353 51.3167C18.1928 51.406 16.8502 51.5191 15.5133 51.6814C15.0304 51.7379 14.8253 51.6121 14.6518 51.1727C13.1069 47.1689 11.9909 43.0192 11.3216 38.7903C11.2731 38.4986 11.1519 38.2159 11.7132 38.174C20.4546 37.5377 29.2071 37.2022 38.8696 37.2259C44.9259 37.1675 51.8698 37.452 58.8212 37.8093C60.6298 37.9023 62.4348 38.0774 64.2435 38.174C64.6164 38.1959 64.6574 38.3345 64.6164 38.6262C63.906 43.0022 62.8282 47.2707 61.1575 51.3896C61.0419 51.6723 60.8909 51.7124 60.6336 51.6868C57.1989 51.3386 53.768 51.1435 50.3334 50.9794L50.3352 50.9757ZM71.0923 56.495C66.7029 56.805 62.3155 56.8761 57.928 56.495C57.8873 56.4857 57.8483 56.4704 57.8124 56.4494C57.9448 55.6672 58.0902 54.8905 58.204 54.1101C58.258 53.7454 58.3587 53.5412 58.81 53.6032C59.6136 53.7126 60.4285 53.7472 61.234 53.8402C62.0395 53.9332 62.4535 53.7454 62.7667 53.0033C64.1822 49.6781 65.2608 46.2252 65.9869 42.6941C66.1081 42.096 66.2946 41.8408 66.992 41.8754C68.4501 41.9447 69.9138 41.8955 71.4522 41.8955C70.9412 44.4372 70.3334 46.7182 68.6105 48.5598C68.2002 49.001 68.2077 49.5207 68.6272 49.9747C70.2401 51.7288 70.8928 53.884 71.3496 56.1267C71.4037 56.3911 71.3925 56.4731 71.0923 56.495Z" fill="#544D7A" stroke="#544D7A" stroke-width="0.6"/>
<path d="M27.8965 41.6699V41.5151C27.8965 40.9715 28.4032 40.5428 28.9467 40.5468C29.5185 40.551 29.8857 41.0119 29.8946 41.5836L29.8957 41.6543C29.9043 42.2124 29.4543 42.6695 28.8961 42.6695C28.344 42.6695 27.8965 42.222 27.8965 41.6699Z" fill="#544D7A" stroke="#544D7A" stroke-width="0.6"/>
<path d="M46.8543 18.1646C45.2787 18.0606 43.7031 17.9549 42.1256 17.8947C41.7042 17.8801 41.5457 17.7361 41.3947 17.3696C40.6358 15.5244 39.8321 13.6955 39.0509 11.8594C38.842 11.3653 38.5455 10.986 37.9414 10.9915C37.3373 10.997 37.0538 11.3835 36.845 11.8758C36.0656 13.7138 35.2582 15.5389 34.4993 17.3842C34.3445 17.7616 34.1618 17.8692 33.7535 17.8856C32.176 17.9512 30.6004 18.0679 29.0248 18.1627C28.4803 18.1974 28.0272 18.3852 27.8407 18.9413C27.6543 19.4974 27.947 19.853 28.3479 20.1721C29.504 21.0837 30.6507 22.0082 31.8273 22.8943C32.2002 23.1678 32.299 23.3866 32.148 23.8443C31.57 25.6093 31.0553 27.3925 30.6451 29.2049C30.5258 29.7319 30.4904 30.1896 30.964 30.5579C31.4767 30.9535 31.9466 30.7785 32.4333 30.4795C34.1115 29.4383 35.8176 28.4246 37.4939 27.3798C37.6228 27.2751 37.785 27.2178 37.9526 27.2178C38.1201 27.2178 38.2824 27.2751 38.4113 27.3798C40.1062 28.4464 41.8254 29.4766 43.5316 30.5269C44.0033 30.8168 44.4751 30.9317 44.945 30.5579C45.3794 30.2114 45.3831 29.7665 45.2657 29.2596C44.8443 27.4509 44.3464 25.6622 43.7572 23.899C43.5987 23.4231 43.6863 23.1806 44.076 22.887C45.2545 22.0027 46.3975 21.0746 47.5573 20.1666C47.7073 20.0672 47.8345 19.9384 47.9308 19.7884C48.0271 19.6383 48.0904 19.4703 48.1167 19.295C48.1391 18.655 47.6468 18.2174 46.8543 18.1646ZM41.9858 21.835C41.225 22.3947 41.1448 22.6318 41.4264 23.5143C41.8217 24.7906 42.2133 26.056 42.6011 27.316C42.3624 27.4873 42.2487 27.316 42.1331 27.2412C41.0143 26.5483 39.8955 25.8646 38.8029 25.1425C38.2006 24.7432 37.6841 24.756 37.0837 25.1608C36.073 25.8445 35.0326 26.4754 33.9865 27.1136C33.8001 27.2266 33.6472 27.429 33.2892 27.3688C33.6621 26.1709 34.022 24.9857 34.4079 23.8078C34.7976 22.5898 34.7548 22.4458 33.7273 21.6927C33.0449 21.1931 32.3699 20.6808 31.5476 20.0681C32.7316 20.0116 33.759 19.9277 34.7846 19.9241C35.4913 19.9241 35.9034 19.636 36.1514 19.0124C36.7108 17.6012 37.3056 16.2026 37.8892 14.8005C37.8892 14.7859 37.9246 14.7823 38.0346 14.733C38.5717 16.044 39.1534 17.3349 39.6289 18.666C39.944 19.5649 40.4251 20.0043 41.4413 19.9587C42.3568 19.9168 43.278 20.0371 44.3595 20.0955C43.4775 20.7282 42.7316 21.2843 41.9858 21.835Z" fill="#544D7A" stroke="#544D7A" stroke-width="0.6"/>
<path d="M18.8337 18.8082C18.1997 18.7627 17.7466 19.131 17.7149 19.7199C17.6978 19.8542 17.7086 19.9904 17.7466 20.1205C17.7846 20.2506 17.8491 20.3719 17.9361 20.4771C18.0232 20.5823 18.131 20.6692 18.2532 20.7327C18.3753 20.7963 18.5094 20.835 18.6472 20.8467C18.7913 20.8566 18.9359 20.8383 19.0726 20.7928C19.2093 20.7473 19.3354 20.6756 19.4434 20.5819C19.5514 20.4881 19.6392 20.3742 19.7017 20.2469C19.7641 20.1196 19.7999 19.9813 19.807 19.8403C19.8087 19.5797 19.7091 19.3281 19.5284 19.1366C19.3478 18.945 19.0994 18.8276 18.8337 18.8082Z" fill="#544D7A" stroke="#544D7A" stroke-width="0.6"/>
<path d="M57.1298 18.8082C56.9917 18.8067 56.8547 18.8324 56.727 18.8838C56.5993 18.9352 56.4835 19.0113 56.3866 19.1075C56.2896 19.2036 56.2135 19.3179 56.1627 19.4435C56.112 19.5691 56.0876 19.7034 56.0912 19.8384C56.0916 19.9737 56.1195 20.1076 56.1732 20.2324C56.2269 20.3571 56.3054 20.4702 56.404 20.5652C56.5027 20.6601 56.6196 20.735 56.748 20.7855C56.8764 20.836 57.0137 20.8611 57.1521 20.8595C57.2905 20.8588 57.4274 20.831 57.5546 20.7778C57.6818 20.7246 57.7969 20.6471 57.893 20.5497C57.9891 20.4523 58.0643 20.3371 58.1141 20.2109C58.164 20.0847 58.1875 19.9499 58.1833 19.8147C58.1857 19.6798 58.1599 19.5459 58.1075 19.4212C58.0551 19.2965 57.9771 19.1835 57.8785 19.0893C57.7798 18.995 57.6625 18.9215 57.5338 18.8731C57.405 18.8248 57.2676 18.8027 57.1298 18.8082Z" fill="#544D7A" stroke="#544D7A" stroke-width="0.6"/>
<path d="M19.0674 24.012C18.9293 24.0045 18.7912 24.0248 18.6614 24.0715C18.5316 24.1183 18.4131 24.1905 18.313 24.2838C18.2128 24.3771 18.1333 24.4894 18.0793 24.6139C18.0253 24.7384 17.998 24.8723 17.9989 25.0076C17.9905 25.1426 18.0105 25.2779 18.0578 25.4051C18.105 25.5323 18.1785 25.6486 18.2736 25.7469C18.3687 25.8452 18.4834 25.9234 18.6106 25.9765C18.7379 26.0297 18.8749 26.0567 19.0133 26.056C19.1514 26.0624 19.2894 26.0415 19.4191 25.9945C19.5487 25.9476 19.6674 25.8757 19.768 25.7829C19.8686 25.6902 19.949 25.5786 20.0045 25.4547C20.06 25.3309 20.0895 25.1974 20.0911 25.0623C20.0971 24.9269 20.0751 24.7918 20.0264 24.6649C19.9778 24.5381 19.9034 24.4221 19.8078 24.3241C19.7122 24.226 19.5974 24.1478 19.4702 24.0942C19.3429 24.0406 19.2059 24.0126 19.0674 24.012Z" fill="#544D7A" stroke="#544D7A" stroke-width="0.6"/>
<path d="M56.8729 24.0103C56.7346 24.0017 56.5961 24.0212 56.4659 24.0676C56.3358 24.1139 56.2169 24.1862 56.1167 24.2797C56.0165 24.3732 55.9372 24.486 55.8838 24.611C55.8304 24.736 55.804 24.8704 55.8063 25.0058C55.7945 25.1407 55.8119 25.2765 55.8572 25.4044C55.9025 25.5323 55.9748 25.6494 56.0694 25.7483C56.1639 25.8471 56.2787 25.9254 56.4062 25.9781C56.5337 26.0308 56.6711 26.0568 56.8095 26.0542C56.9476 26.0606 57.0856 26.0399 57.2154 25.9935C57.3452 25.947 57.4642 25.8756 57.5655 25.7836C57.6667 25.6915 57.7482 25.5807 57.805 25.4574C57.8619 25.3342 57.893 25.2011 57.8966 25.066C57.9036 24.7934 57.7998 24.5291 57.6079 24.3312C57.416 24.1333 57.1517 24.0179 56.8729 24.0103Z" fill="#544D7A" stroke="#544D7A" stroke-width="0.6"/>
<path d="M20.1411 29.0591C20.0027 29.0572 19.8653 29.083 19.7375 29.135C19.6098 29.1871 19.4943 29.2642 19.3981 29.3616C19.302 29.459 19.2274 29.5746 19.1788 29.7013C19.1301 29.8281 19.1086 29.9632 19.1155 30.0984C19.1131 30.2335 19.139 30.3676 19.1916 30.4925C19.2443 30.6174 19.3226 30.7304 19.4217 30.8246C19.5207 30.9187 19.6385 30.992 19.7677 31.0399C19.8969 31.0878 20.0347 31.1093 20.1728 31.103C20.311 31.1041 20.4481 31.0778 20.5757 31.0259C20.7033 30.9739 20.8189 30.8972 20.9156 30.8005C21.0122 30.7038 21.0879 30.5891 21.138 30.4631C21.1882 30.3371 21.2119 30.2025 21.2076 30.0674C21.208 29.9319 21.1803 29.7978 21.1264 29.673C21.0725 29.5483 20.9934 29.4354 20.8938 29.3413C20.7942 29.2471 20.6762 29.1736 20.5468 29.1251C20.4175 29.0766 20.2795 29.0542 20.1411 29.0591Z" fill="#544D7A" stroke="#544D7A" stroke-width="0.6"/>
<path d="M55.7281 29.0572C55.5898 29.0545 55.4525 29.0791 55.3242 29.1295C55.1959 29.1799 55.0794 29.2551 54.9815 29.3506C54.8837 29.4461 54.8066 29.56 54.7548 29.6853C54.703 29.8107 54.6776 29.9449 54.6801 30.0801C54.676 30.2151 54.7001 30.3494 54.7509 30.475C54.8016 30.6005 54.878 30.7146 54.9754 30.8104C55.0728 30.9061 55.1891 30.9814 55.3172 31.0317C55.4453 31.082 55.5826 31.1063 55.7206 31.103C55.8588 31.1064 55.9963 31.0826 56.125 31.033C56.2536 30.9835 56.3707 30.9091 56.4693 30.8143C56.568 30.7196 56.6461 30.6064 56.6991 30.4815C56.7521 30.3566 56.7789 30.2226 56.7778 30.0874C56.7793 29.952 56.7532 29.8177 56.701 29.6923C56.6489 29.5669 56.5716 29.4529 56.4739 29.357C56.3762 29.2611 56.2599 29.1852 56.1318 29.1337C56.0038 29.0822 55.8665 29.0562 55.7281 29.0572Z" fill="#544D7A" stroke="#544D7A" stroke-width="0.6"/>
<path d="M37.9142 47.3236C34.2203 47.2871 30.5284 47.3673 26.8345 47.4658C25.8593 47.4913 25.2943 46.7146 25.7046 45.9634C25.797 45.7924 25.9368 45.6505 26.108 45.5537C26.2791 45.457 26.4747 45.4094 26.6723 45.4163C31.0156 45.2486 35.359 45.1878 39.7023 45.234C42.8125 45.2632 45.9265 45.2504 49.0367 45.4163C49.8608 45.4601 50.3288 45.8193 50.3419 46.4356C50.355 47.0519 49.8347 47.4968 48.9956 47.4731C45.3018 47.3637 41.6136 47.2853 37.9142 47.3236Z" fill="#544D7A" stroke="#544D7A" stroke-width="0.6"/>
<path d="M43.9216 42.55C40.8841 42.55 37.6285 42.55 34.3747 42.55C33.7519 42.55 33.2559 42.3677 33.0881 41.7441C32.9017 41.0312 33.4107 40.4678 34.2889 40.4678C36.6346 40.4568 38.9822 40.4678 41.3298 40.4678C45.4916 40.4805 49.6479 40.6227 53.806 40.7832C54.6693 40.816 55.1243 41.1807 55.1112 41.8608C55.0982 42.5409 54.632 42.88 53.7538 42.8527L43.9216 42.55Z" fill="#544D7A" stroke="#544D7A" stroke-width="0.6"/>
</g>
<defs>
<clipPath id="clip0_681_198">
<rect width="74" height="60" fill="white" transform="translate(0.984375)"/>
</clipPath>
</defs>
</svg>
