<svg width="64" height="60" viewBox="0 0 64 60" fill="none" xmlns="http://www.w3.org/2000/svg">
<g clip-path="url(#clip0_193_8685)">
<path d="M0.599378 3.09115C0.692712 3.06546 0.702541 2.98999 0.727102 2.91291C1.35424 1.03415 2.78535 0.00484064 4.79775 0.00323486C10.3934 0.00323486 15.9879 0.00323486 21.5814 0.00323486H44.3057C47.0893 0.00323486 48.7398 1.62507 48.7398 4.37256C48.7398 10.6993 48.7398 17.0261 48.7267 23.3529C48.7267 23.8908 48.8495 24.098 49.4161 24.2586C56.8631 26.3718 61.5134 31.1634 63.0264 38.5998C64.8685 47.658 59.0589 56.6969 49.9777 59.2806C45.4065 60.5768 40.5019 60.0977 36.2812 57.9427C32.0606 55.7876 28.8477 52.122 27.3092 47.7062C27.1552 47.2646 26.9325 47.1955 26.5215 47.1955C19.3954 47.2052 12.2699 47.2052 5.14489 47.1955C2.70184 47.1955 1.62606 46.4777 0.694362 44.2329C0.6829 44.2056 0.632127 44.1943 0.599378 44.1751V28.562C0.735285 28.562 0.725476 28.4239 0.779511 28.3501C0.926007 28.1164 1.15124 27.9403 1.41619 27.8523C1.68115 27.7643 1.96913 27.77 2.23027 27.8683C2.78209 28.0466 3.04899 28.4721 3.04899 29.0679C3.04899 31.8908 3.04899 34.7138 3.04899 37.5368C3.04899 39.2988 3.04899 41.0604 3.04899 42.8214C3.04899 44.2505 3.58606 44.7836 5.0139 44.7836H25.7765C26.5133 44.7836 26.5166 44.7836 26.4315 44.0562C25.8715 39.3063 26.9784 34.9643 29.8701 31.1152C32.9272 27.0526 37.0338 24.6311 42.1377 23.8667C43.3663 23.6633 44.6154 23.6062 45.8579 23.6965C46.1723 23.7254 46.2624 23.613 46.2411 23.3368C46.2411 23.2164 46.2411 23.096 46.2411 22.9755C46.2411 16.8093 46.2411 10.6431 46.2411 4.47694C46.2457 4.25713 46.2364 4.03725 46.2133 3.81857C46.1052 2.97554 45.5681 2.47132 44.7101 2.46971C41.0767 2.46008 37.4432 2.46971 33.8081 2.45044C33.2923 2.45044 33.3742 2.71861 33.3742 3.01247C33.3742 7.81696 33.3742 12.622 33.3742 17.4276C33.3742 17.5881 33.3742 17.7487 33.3742 17.9093C33.3087 19.0333 32.3295 19.5552 31.3421 18.9659C29.2921 17.7391 27.2486 16.5075 25.2165 15.2453C24.7924 14.982 24.4944 14.9948 24.0801 15.2453C22.1152 16.4577 20.1306 17.6315 18.1625 18.8374C17.6532 19.149 17.1522 19.3722 16.5709 19.0655C15.9896 18.7588 15.9159 18.2192 15.9159 17.6203C15.9159 12.7547 15.9159 7.88923 15.9323 3.02532C15.9323 2.55161 15.8062 2.43921 15.3314 2.44242C11.8404 2.46329 8.34935 2.45205 4.8518 2.45366C3.59425 2.45366 3.03915 3.00604 3.03915 4.25373C3.03915 8.73921 3.03915 13.2242 3.03915 17.7086C3.03915 18.4023 3.01459 19.043 2.22044 19.34C1.47049 19.6227 1.02184 19.165 0.583008 18.6977L0.599378 3.09115ZM44.8706 26.1116C36.1922 26.057 28.8991 33.0486 28.7599 41.4308C28.6109 50.4553 36.0301 57.5143 44.6708 57.5496C48.9369 57.5821 53.0414 55.9514 56.0814 53.0162C59.1215 50.0809 60.8481 46.0817 60.8814 41.8981C60.9452 33.2541 53.7602 26.1678 44.8706 26.1116ZM30.8804 15.8218V15.2212C30.8804 11.1602 30.8804 7.09918 30.8935 3.03976C30.8935 2.57087 30.7756 2.45045 30.2958 2.45366C26.5428 2.47293 22.7893 2.47293 19.0352 2.45366C18.5309 2.45366 18.395 2.5773 18.3983 3.0783C18.4212 7.11844 18.4097 11.1602 18.4146 15.2003C18.4146 15.3706 18.354 15.5536 18.4981 15.764C18.6619 15.6676 18.842 15.5777 19.009 15.4781C20.4991 14.5805 22.017 13.723 23.4677 12.7644C24.3192 12.2007 25.0118 12.2184 25.86 12.7644C27.4631 13.8113 29.1283 14.7636 30.8804 15.8218Z" fill="#544D7A" stroke="#544D7A" stroke-width="0.4"/>
<path d="M0.599609 23.1634C0.877972 22.8968 1.06956 22.5339 1.50511 22.4456C1.79287 22.3718 2.09812 22.4021 2.36498 22.5309C2.63185 22.6597 2.84248 22.8784 2.95837 23.1471C3.07427 23.4157 3.08766 23.7163 2.99609 23.9938C2.90452 24.2713 2.71414 24.5073 2.45975 24.6584C1.92267 24.9795 1.31355 24.8687 0.863253 24.395C0.778107 24.3035 0.792826 24.1124 0.599609 24.1237V23.1634Z" fill="#544D7A" stroke="#544D7A" stroke-width="0.4"/>
<path d="M14.8126 41.0116C12.7297 41.0116 10.6475 41.0116 8.56575 41.0116C8.34164 41.0173 8.11746 41.0028 7.89605 40.9683C7.62122 40.9263 7.36939 40.7931 7.18265 40.5909C6.99592 40.3887 6.88558 40.1299 6.87006 39.8575C6.85453 39.5852 6.93477 39.3158 7.09736 39.0945C7.25996 38.8732 7.49506 38.7133 7.76341 38.6415C7.93725 38.5876 8.11819 38.5589 8.30049 38.5564C12.608 38.5564 16.9156 38.5564 21.2231 38.5564C22.0418 38.5564 22.5953 38.998 22.6526 39.658C22.723 40.4609 22.1744 41.0052 21.2427 41.0116C19.4268 41.0245 17.6093 41.0116 15.7934 41.0116H14.8126Z" fill="#544D7A" stroke="#544D7A" stroke-width="0.4"/>
<path d="M17.7234 35.2886C16.5216 35.2886 15.3181 35.2886 14.1211 35.2886C13.3302 35.2886 12.7424 34.7491 12.7571 34.0634C12.7718 33.3777 13.3302 32.8864 14.1031 32.8848C16.5101 32.8773 18.9166 32.8773 21.3225 32.8848C22.1642 32.8848 22.6701 33.3665 22.6603 34.1084C22.6505 34.8502 22.1363 35.2886 21.2799 35.2902C20.0895 35.2918 18.9073 35.2886 17.7234 35.2886Z" fill="#544D7A" stroke="#544D7A" stroke-width="0.4"/>
<path d="M8.62672 35.2886C8.24356 35.279 7.84077 35.3593 7.4969 35.1281C7.04006 34.8246 6.7879 34.4071 6.90252 33.8515C6.95255 33.5837 7.09581 33.3412 7.30784 33.1655C7.51987 32.9898 7.78751 32.8917 8.06509 32.888C8.43161 32.8687 8.79892 32.8687 9.16544 32.888C9.3235 32.8925 9.47908 32.9278 9.62319 32.9916C9.76729 33.0555 9.89707 33.1467 10.005 33.26C10.113 33.3733 10.1969 33.5065 10.2521 33.6519C10.3073 33.7972 10.3325 33.9518 10.3264 34.1068C10.3231 34.4089 10.2029 34.6986 9.99013 34.9171C9.77732 35.1356 9.4878 35.2667 9.18017 35.2838C9.00169 35.2983 8.81011 35.287 8.62672 35.2886Z" fill="#544D7A" stroke="#544D7A" stroke-width="0.4"/>
<path d="M42.4265 37.3103C43.1437 38.0152 43.7725 38.627 44.3915 39.2469C45.0104 39.8667 45.0955 40.554 44.5716 41.0983C44.0476 41.6427 43.2895 41.5977 42.6345 40.9619C41.3158 39.6772 40.0015 38.3894 38.6916 37.0984C37.9875 36.4047 37.9793 35.7495 38.6703 35.0654C40.0097 33.7439 41.3589 32.4352 42.7 31.1168C43.0766 30.7459 43.5089 30.5837 44.0312 30.7282C44.2495 30.7857 44.4464 30.9034 44.5985 31.0673C44.7506 31.2313 44.8515 31.4346 44.8892 31.6531C45.0022 32.1349 44.7877 32.509 44.4537 32.8334L42.3823 34.8438C42.7851 34.8438 43.0373 34.8438 43.2862 34.8438C45.1185 34.9032 46.9622 34.672 48.7798 35.051C52.3821 35.8025 54.9119 39.0237 54.8694 42.7941C54.8317 46.2256 52.0972 49.4115 48.6471 50.0714C48.1265 50.1705 47.5974 50.221 47.067 50.2224C43.4527 50.2288 39.8389 50.2288 36.2256 50.2224C35.3856 50.2224 34.8731 49.8547 34.7846 49.2252C34.6651 48.3886 35.2202 47.7977 36.1601 47.7929C38.2216 47.7848 40.2848 47.7929 42.3463 47.7929C43.9395 47.7929 45.5327 47.8025 47.126 47.7929C48.5421 47.8007 49.9035 47.2566 50.9106 46.2801C51.9176 45.3037 52.4879 43.9749 52.4959 42.5861C52.5039 41.1973 51.9491 39.8623 50.9534 38.8747C49.9577 37.8871 48.6027 37.3278 47.1865 37.3199C45.6424 37.2942 44.0984 37.3103 42.4265 37.3103Z" fill="#544D7A" stroke="#544D7A" stroke-width="0.4"/>
</g>
<defs>
<clipPath id="clip0_193_8685">
<rect width="62.7692" height="60" fill="white" transform="translate(0.599609)"/>
</clipPath>
</defs>
</svg>
